<svg width="124" height="66" viewBox="0 0 124 66" fill="none" xmlns="http://www.w3.org/2000/svg">
<path d="M19.0255 29.275C19.2116 29.391 19.3047 29.5419 19.3047 29.7276C19.3047 30.2381 19.0953 30.7487 18.6764 31.2593C18.2575 31.7699 17.6756 32.1877 16.9309 32.5126C16.1862 32.8375 15.3716 33 14.4873 33C13.2538 33 12.2647 32.6867 11.52 32.06C10.7753 31.4334 10.3796 30.6327 10.3331 29.6579C9.30909 29.7508 8.40145 30.1685 7.61018 30.9112C6.84218 31.6539 6.26036 32.559 5.86473 33.6266V33.6963C5.77164 33.9283 5.71346 34.1024 5.69018 34.2185C5.48073 34.9611 5.02691 37.34 4.32873 41.3552C4.30546 41.5872 3.80509 41.7033 2.82764 41.7033C1.89673 41.7033 1.43127 41.5408 1.43127 41.2159C1.43127 41.0302 1.50109 40.5545 1.64073 39.7886C2.05964 37.4445 2.51346 35.0076 3.00218 32.4778C3.49091 29.948 3.79346 28.4859 3.90982 28.0913C4.00291 27.7432 4.16582 27.5111 4.39855 27.3951C4.65455 27.279 4.992 27.221 5.41091 27.221C6.20218 27.221 6.87709 27.3371 7.43564 27.5691C7.24945 28.1029 6.99346 29.0545 6.66764 30.4238C7.31927 29.4955 8.05236 28.7528 8.86691 28.1958C9.70473 27.6388 10.5542 27.3603 11.4153 27.3603C11.8109 27.3603 12.1484 27.4183 12.4276 27.5343C12.7069 27.6272 12.8815 27.7432 12.9513 27.8825C12.9513 30.2498 13.824 31.4334 15.5695 31.4334C16.9658 31.4334 18.1178 30.7139 19.0255 29.275ZM34.6435 3.82655C36.3658 3.82655 37.7505 4.25591 38.7978 5.11463C39.8451 5.95015 40.5782 6.94813 40.9971 8.10857C41.416 9.26901 41.6255 10.3714 41.6255 11.4158L41.3811 11.938C40.8458 10.3134 40.0894 9.14136 39.112 8.42189C38.1345 7.67921 36.8429 7.30786 35.2369 7.30786C31.9089 7.30786 29.1511 8.85125 26.9635 11.938C24.7758 15.0016 23.0304 19.8174 21.7271 26.3855C21.5875 27.0818 21.2733 28.6135 20.7845 30.9808L20.4005 32.7215C21.4478 31.3754 22.6115 30.1221 23.8915 28.9617C25.1947 27.778 26.1256 27.1862 26.6842 27.1862C27.01 27.1862 27.5104 27.3603 28.1853 27.7084C28.8602 28.0565 29.1976 28.3118 29.1976 28.4743C28.7555 30.0293 28.3016 31.8628 27.8362 33.9748C27.3707 36.0868 27.138 37.5837 27.138 38.4657C27.138 39.6957 27.7198 40.3108 28.8834 40.3108C29.8376 40.3108 30.8151 39.9626 31.8158 39.2664C32.8398 38.5701 33.7591 37.6998 34.5736 36.6554C35.3882 35.611 35.9584 34.613 36.2842 33.6614C36.4473 33.7311 36.5753 33.8239 36.6684 33.94C36.7614 34.0328 36.808 34.2069 36.808 34.4621C36.808 34.7174 36.7731 34.9843 36.7033 35.2629C36.4938 36.1448 35.9118 37.1312 34.9576 38.222C34.0034 39.2896 32.8747 40.2063 31.5715 40.9722C30.2682 41.7381 28.9765 42.1211 27.6965 42.1211C26.5329 42.1211 25.6369 41.7845 25.0085 41.1115C24.3802 40.4384 24.066 39.4985 24.066 38.2916C24.066 37.4561 24.194 36.4697 24.45 35.3325C24.706 34.1952 25.1016 32.5938 25.6369 30.5283C25.6136 30.4354 25.5671 30.3658 25.4973 30.3194C25.4275 30.273 25.3576 30.2498 25.2878 30.2498C25.0318 30.2498 24.5431 30.5399 23.8216 31.1201C23.1235 31.7003 22.3904 32.443 21.6224 33.3481C20.8544 34.2533 20.2609 35.17 19.842 36.0984C19.7489 36.4697 19.5976 37.3168 19.3882 38.6397L19.0042 40.6937C18.9111 41.2275 18.8064 41.5524 18.69 41.6685C18.5969 41.7845 18.4107 41.8425 18.1315 41.8425C17.5496 41.8425 17.0027 41.7845 16.4907 41.6685C15.9787 41.5524 15.7344 41.39 15.7576 41.1811L16.002 39.8582C16.6769 36.7946 17.1424 34.6594 17.3984 33.4526C17.6544 32.2225 17.8405 31.2941 17.9569 30.6675C18.1198 29.716 18.3875 28.277 18.7598 26.3507C19.7605 21.1055 21.0987 16.8003 22.7744 13.435C24.45 10.0697 26.3002 7.63279 28.3249 6.12422C30.3496 4.59244 32.4558 3.82655 34.6435 3.82655Z" fill="black"/>
<path d="M42.7025 39.336C42.7025 38.4541 43.0051 37.6998 43.6102 37.0731C44.2385 36.4233 45.0298 36.0984 45.984 36.0984C46.9382 36.0984 47.7294 36.4233 48.3578 37.0731C48.9861 37.6998 49.3003 38.4541 49.3003 39.336C49.3003 40.2179 48.9861 40.9722 48.3578 41.5989C47.7294 42.2255 46.9382 42.5388 45.984 42.5388C45.0298 42.5388 44.2385 42.2255 43.6102 41.5989C43.0051 40.9722 42.7025 40.2179 42.7025 39.336ZM62.9243 41.7033H54.1971V17.3341H62.9243C65.6007 17.3341 67.9163 17.8331 69.8712 18.831C71.8262 19.8058 73.3389 21.2099 74.4094 23.0434C75.48 24.8537 76.0152 27.0121 76.0152 29.5187C76.0152 32.0252 75.48 34.1952 74.4094 36.0287C73.3389 37.839 71.8262 39.2432 69.8712 40.2411C67.9163 41.2159 65.6007 41.7033 62.9243 41.7033ZM62.7149 22.5909H60.3062V36.4465H62.7149C63.9716 36.4465 65.1469 36.2376 66.2407 35.8199C67.3345 35.3789 68.2189 34.6594 68.8938 33.6614C69.5687 32.6403 69.9062 31.2593 69.9062 29.5187C69.9062 27.778 69.5687 26.4087 68.8938 25.4107C68.2189 24.3895 67.3345 23.6701 66.2407 23.2523C65.1469 22.8113 63.9716 22.5909 62.7149 22.5909ZM79.7992 17.3341H96.032V22.1731H85.4894V26.5247H95.3338V31.2941H85.4894V36.8643H96.032V41.7033H79.7992V17.3341ZM111.097 31.8512L117.031 17.3341H123.943L111.097 43.2351L98.2149 17.3341H105.127L111.097 31.8512Z" fill="black"/>
</svg>
